<svg width="740" height="740" viewBox="0 0 740 740" fill="none" xmlns="http://www.w3.org/2000/svg">
<rect width="740" height="740" fill="white"/>
<path fill-rule="evenodd" clip-rule="evenodd" d="M353.924 383.809C338.582 385.579 326.808 385.366 318.605 383.172C310.401 380.978 303.931 376.311 299.195 369.172C294.032 358.252 291.168 351.994 290.604 350.398C287.835 342.576 287.528 334.888 288.058 329.716C288.75 322.96 292.462 314.156 299.195 303.305C300.154 295.761 301.745 289.079 303.968 283.259C306.191 277.439 310.645 269.06 317.332 258.122L318.286 222.166C321.107 213.935 323.759 208.102 326.241 204.665C328.723 201.228 331.587 199.425 334.832 199.256C337.571 198.995 340.116 199.632 342.469 201.165C344.822 202.698 349.277 206.622 355.833 212.938C361.248 203.488 367.4 196.276 374.288 191.301C381.177 186.325 390.299 182.507 401.653 179.846L403.244 176.664L403.436 157.947L398.153 112.388H391.153L401.971 96.4785C402.937 92.9729 403.891 90.4273 404.835 88.8418C405.779 87.2563 407.542 85.4532 410.123 83.4327C410.17 82.8468 412.293 82.5284 416.492 82.4774C420.691 82.4264 427.305 82.6387 436.336 83.1143C440.191 83.9997 442.843 85.1664 444.291 86.6144C445.739 88.0624 447.012 91.1383 448.109 95.8421L463.621 112.411L453.837 113.025L452.882 143.253C451.521 148.437 450.248 151.937 449.064 153.754C447.88 155.57 445.97 156.949 443.336 157.89L427.745 158.845L425.836 177.3L427.109 179.846C435.072 182.122 440.481 183.925 443.336 185.255C450.193 188.449 456.396 193.074 461.155 201.165C464.487 206.829 467.935 214.654 472.61 222.802C476.726 229.976 484.257 242.598 495.202 260.667L506.021 270.213L511.43 281.032L524.476 290.896L530.521 271.168C518.218 252.5 512.066 240.621 512.066 235.53C512.066 233.402 513.352 231.396 514.612 230.12C516.366 228.344 518.776 227.253 522.885 227.575C525.624 227.79 528.275 229.487 530.84 232.666L567.432 330.988C563.79 342.924 560.608 351.833 557.886 357.717C555.164 363.6 551.134 369.434 545.795 375.217C538.102 379.533 531.632 382.078 526.385 382.854C521.138 383.63 512.547 382.888 500.611 380.627C496.432 378.714 493.674 376.91 492.338 375.217C487.387 368.941 485.316 360.979 482.792 356.762C479.248 350.84 477.127 345.324 476.429 340.216L459.882 286.441L388.289 284.214L381.607 338.625C377.954 353.413 374.03 364.232 369.834 371.081C365.637 377.93 360.334 382.173 353.924 383.809Z" fill="white"/>
<path fill-rule="evenodd" clip-rule="evenodd" d="M358.855 395.531C357.559 395.297 356.603 395.182 355.989 395.184C353.629 395.194 351.703 395.073 350.575 393.274C349.006 390.771 349.431 387.799 351.849 384.357L358.536 382.128H361.721L384.967 383.084L392.291 382.128L418.084 381.173C420.844 382.447 421.799 384.888 420.95 388.497C420.101 392.106 417.766 394.335 413.945 395.184L406.302 395.531L354.715 632.074H321.597C327.267 594.913 331.831 566.966 335.29 548.232C338.749 529.498 346.604 478.597 358.855 395.531ZM439.738 395.531C439.688 394.779 437.671 394.664 433.688 395.184C430.291 393.486 428.911 390.832 429.548 387.223C430.185 383.614 431.777 381.704 434.325 381.491L439.101 382.128H453.749L468.398 383.084L484.638 381.491C489.733 381.916 492.28 384.251 492.28 388.497C492.28 390.91 491.467 392.163 490.37 393.274C489.814 393.836 488.753 394.473 487.185 395.184L482.09 395.531L495.146 632.393H460.755C456.122 589.798 453.15 559.938 451.839 542.812C450.277 522.416 441.443 421.033 439.738 395.531Z" fill="white"/>
<path fill-rule="evenodd" clip-rule="evenodd" d="M358.855 395.212H406.302L354.715 631.755H321.597C327.267 594.594 331.831 566.647 335.29 547.913C338.749 529.179 346.604 478.279 358.855 395.212ZM439.738 395.212H482.09L495.146 632.074H460.755C456.122 589.479 453.15 559.619 451.839 542.494C450.277 522.097 441.443 420.714 439.738 395.212Z" stroke="#263E4B" stroke-width="0.955316"/>
<path fill-rule="evenodd" clip-rule="evenodd" d="M388.469 184.172L352.567 184.341C334.655 184.425 319.928 198.486 319.015 216.375L318.413 228.166C318.974 222.103 319.717 217.852 320.642 215.414C322.111 211.544 323.807 209.318 325.737 206.807C328.655 203.01 331.961 199.806 334.653 199.156C340.81 197.668 347.709 202.45 355.352 213.501C356.632 211.026 357.693 209.113 358.536 207.763C360.219 205.068 362.01 202.158 365.223 199.156C371.592 193.205 379.341 188.211 388.469 184.172Z" fill="#8257e5"/>
<path fill-rule="evenodd" clip-rule="evenodd" d="M359.173 381.504C362.449 382.699 368.605 383.23 377.643 383.098C382.563 383.026 391.422 381.557 398.978 381.185C403.192 380.978 409.56 380.978 418.084 381.185L425.408 361.739H432.414L434.643 381.185C442.095 381.651 447.403 381.97 450.565 382.142C457.366 382.51 463.023 382.779 467.442 382.779C474.943 382.779 480.463 382.248 484.001 381.185L467.761 290.33L392.291 293.199C391.304 307.034 387.696 322.23 381.464 338.786C380.136 342.315 379.923 346.775 378.598 351.219C376.578 357.991 374.353 364.541 371.911 369.071C369.594 373.369 365.348 377.513 359.173 381.504Z" fill="#8257e5"/>
<path d="M483.498 381.397L476.206 338.867C476.162 338.607 476.336 338.36 476.596 338.315C476.856 338.27 477.103 338.445 477.148 338.705L484.404 381.026H485.434C489.479 381.026 492.758 384.309 492.758 388.358C492.758 392.408 489.479 395.69 485.434 395.69H435.187C431.601 395.69 428.694 392.78 428.694 389.19C428.694 388.89 428.715 388.59 428.757 388.292L429.138 385.555C429.481 383.091 431.389 381.164 433.804 380.767L431.981 362.217H425.739L418.739 380.803C420.692 381.255 422.075 383.079 421.916 385.141C421.903 385.319 421.877 385.496 421.841 385.67L421.258 388.456C420.377 392.671 416.665 395.69 412.363 395.69H354.108C351.424 395.69 349.248 393.512 349.248 390.824C349.248 390.316 349.328 389.811 349.484 389.327C349.909 388.012 350.439 386.314 351.074 384.234C351.151 383.981 351.418 383.839 351.67 383.916C351.922 383.993 352.064 384.26 351.987 384.513C351.351 386.598 350.819 388.301 350.393 389.621C350.267 390.01 350.203 390.416 350.203 390.824C350.203 392.984 351.952 394.734 354.108 394.734H412.363C416.213 394.734 419.535 392.032 420.323 388.26L420.906 385.475C420.934 385.34 420.953 385.205 420.964 385.068C421.098 383.326 419.799 381.804 418.061 381.663C414.109 381.586 411.314 381.546 409.676 381.544C405.243 381.539 392.741 382.265 390.125 382.616C384.188 383.411 381.043 383.526 375.908 383.353C375.74 383.347 375.74 383.347 375.573 383.341C373.739 383.279 372.861 383.257 371.69 383.257C367.443 383.257 364.269 383.151 362.163 382.936C359.692 382.684 358.573 382.332 358.7 381.437L359.646 381.571C359.656 381.502 359.637 381.45 359.624 381.427C359.691 381.479 359.829 381.542 360.031 381.606C360.5 381.753 361.246 381.881 362.26 381.985C364.327 382.195 367.472 382.301 371.69 382.301C372.875 382.301 373.761 382.323 375.606 382.385C375.773 382.391 375.773 382.391 375.94 382.397C381.026 382.568 384.118 382.456 389.998 381.668C392.66 381.311 405.203 380.583 409.677 380.588C411.277 380.59 413.97 380.627 417.756 380.701L424.961 361.57C425.032 361.384 425.21 361.261 425.408 361.261H432.414H436.554C436.817 361.261 437.031 361.475 437.031 361.739C437.031 362.003 436.817 362.217 436.554 362.217H432.941L434.769 380.82C436.878 381.168 441.092 381.345 447.381 381.345C449.744 381.345 461.298 381.991 464.621 382.303C468.408 382.659 474.706 382.358 483.498 381.397ZM484.019 381.982L484.054 382.298C474.966 383.305 468.464 383.625 464.532 383.255C461.236 382.945 449.711 382.301 447.381 382.301C440.656 382.301 436.285 382.101 434.232 381.694L434.236 381.673C432.101 381.895 430.382 383.548 430.084 385.687L429.703 388.424C429.667 388.678 429.65 388.934 429.65 389.19C429.65 392.252 432.129 394.734 435.187 394.734H485.434C488.951 394.734 491.803 391.879 491.803 388.358C491.803 384.837 488.951 381.982 485.434 381.982H484.019Z" fill="#263E4B"/>
<path d="M428.41 158.829L426.556 178.422C441.651 183.558 451.302 188.018 455.548 191.841C461.054 196.798 475.166 225.449 482.398 244.252C484.582 249.931 487.968 253.528 496.184 260.185L496.875 260.745C505.125 267.431 508.497 271.041 510.562 276.778C513.75 285.637 520.129 287.765 529.974 283.201C530.213 283.09 530.497 283.195 530.608 283.434C530.719 283.674 530.615 283.958 530.375 284.069C520.049 288.856 513.054 286.522 509.664 277.103C507.678 271.585 504.391 268.066 496.274 261.488L495.583 260.928C487.24 254.168 483.771 250.483 481.506 244.596C474.337 225.957 460.254 197.364 454.909 192.552C450.758 188.814 441.072 184.352 425.892 179.206C425.682 179.135 425.549 178.929 425.57 178.708L427.45 158.829H421.906C421.642 158.829 421.428 158.614 421.428 158.35C421.428 158.086 421.642 157.872 421.906 157.872H427.969C427.973 157.872 427.977 157.872 427.98 157.872H438.588C445.161 157.872 448.973 155.197 450.964 149.79C452.564 145.445 452.953 140.424 452.953 129.688V122.377C452.953 122.276 452.953 122.193 452.954 122.007C452.958 118.453 452.794 116.405 452.033 113.282C452.016 113.264 451.994 113.241 451.967 113.214C451.893 113.14 451.789 113.042 451.657 112.923H406.116C405.852 112.923 405.638 112.709 405.638 112.444C405.638 112.18 405.852 111.966 406.116 111.966H451.839C451.955 111.966 452.068 112.009 452.155 112.086C452.719 112.586 452.887 112.754 452.939 112.968C453.741 116.229 453.914 118.351 453.909 122.009C453.909 122.195 453.909 122.276 453.909 122.377V129.688C453.909 140.545 453.514 145.629 451.86 150.121C449.732 155.903 445.562 158.829 438.588 158.829H428.41ZM567.929 330.362L568.846 330.633C560.845 357.836 552.347 373.694 543.25 378.234C528.93 385.38 511.418 385.929 497.165 378.931C495.281 378.006 493.803 376.714 492.302 374.729C491.232 373.313 490.176 371.61 488.491 368.654C488.05 367.881 486.37 364.903 486.123 364.467C485.068 362.605 484.156 361.02 483.184 359.368C481.852 357.106 479.963 352.111 477.496 344.35L478.406 344.06C480.851 351.752 482.724 356.704 484.007 358.883C484.982 360.539 485.896 362.128 486.954 363.995C487.202 364.433 488.881 367.409 489.321 368.18C490.987 371.102 492.025 372.778 493.064 374.151C494.479 376.024 495.845 377.217 497.586 378.072C511.562 384.935 528.762 384.395 542.824 377.378C551.598 372.999 560.001 357.318 567.929 330.362Z" fill="#263E4B"/>
<path fill-rule="evenodd" clip-rule="evenodd" d="M436.872 182.897L442.604 185.129C446.638 197.455 449.716 207.976 451.839 216.689C453.962 225.403 455.342 238.367 455.978 255.582L448.017 253.35C448.654 239.536 447.487 227.315 444.515 216.689C443.22 212.061 440.673 200.797 436.872 182.897ZM388.151 184.172L393.564 181.941C394.838 191.363 395.475 198.801 395.475 204.256C395.475 209.711 395.475 215.237 395.475 220.833L387.196 232.629C388.469 228.803 389.106 220.196 389.106 206.807C389.106 193.417 388.788 185.873 388.151 184.172Z" fill="#8257e5"/>
<path d="M436.723 182.997L436.539 182.131L443.306 184.765L443.376 184.98C447.413 197.318 450.495 207.849 452.621 216.576C454.753 225.327 456.136 238.32 456.774 255.564L456.798 256.219L447.841 253.708L447.859 253.328C448.493 239.562 447.331 227.392 444.373 216.818C443.075 212.176 440.526 200.907 436.723 182.997ZM445.293 216.56C448.252 227.141 449.431 239.285 448.83 252.992L455.795 254.944C455.149 238.085 453.78 225.368 451.693 216.803C449.586 208.153 446.534 197.716 442.539 185.493L437.842 183.664C441.538 201.05 444.023 212.02 445.293 216.56ZM388.022 184.34L387.86 183.907L394.273 181.263L394.356 181.877C395.633 191.318 396.271 198.776 396.271 204.256V220.985L386.029 235.576L387.061 232.478C388.313 228.719 388.947 220.142 388.947 206.807C388.947 193.523 388.628 185.957 388.022 184.34ZM389.902 206.807C389.902 217.861 389.47 225.667 388.596 230.256L395.316 220.682V204.256C395.316 198.945 394.708 191.731 393.492 182.619L389.049 184.451C389.627 186.845 389.902 194.234 389.902 206.807Z" fill="#263E4B"/>
<path d="M427.816 184.308L428.732 184.037L472.051 330.408C474.527 343.345 483.449 349.784 498.968 349.784C514.494 349.784 527.258 339.409 537.276 318.568L538.136 318.983C527.974 340.124 514.913 350.741 498.968 350.741C483.015 350.741 473.68 344.004 471.124 330.633L427.816 184.308ZM451.367 302.69L452.311 302.836C447.395 334.714 438.155 350.741 424.453 350.741C413.367 350.741 405.991 316.212 402.959 250.184C402.387 237.734 402.069 216.476 402.003 186.405L402.958 186.403C403.024 216.461 403.342 237.708 403.913 250.14C406.906 315.308 414.271 349.784 424.453 349.784C437.499 349.784 446.517 334.144 451.367 302.69Z" fill="#263E4B"/>
<path fill-rule="evenodd" clip-rule="evenodd" d="M498.954 287.009L532.32 283.502L534.294 302.279L500.927 305.786L498.954 287.009ZM468.006 253.347L464.87 223.512C466.128 220.286 469.443 218.391 474.815 217.826C480.186 217.261 483.823 218.426 485.724 221.32L488.86 251.155L468.006 253.347ZM555.593 244.141L534.739 246.333L531.603 216.498C532.861 213.272 536.176 211.377 541.548 210.812C546.919 210.247 550.556 211.412 552.457 214.306L555.593 244.141Z" fill="#263E4B"/>
<path fill-rule="evenodd" clip-rule="evenodd" d="M465.386 286.475L460.54 240.367C462.57 235.372 467.883 232.423 476.477 231.519C485.072 230.616 490.881 232.396 493.906 236.86L498.752 282.968L465.386 286.475ZM565.485 275.954L532.119 279.461L527.272 233.353C529.303 228.358 534.616 225.409 543.21 224.506C551.804 223.602 557.614 225.382 560.639 229.846L565.485 275.954Z" fill="white"/>
<path fill-rule="evenodd" clip-rule="evenodd" d="M465.176 286.604L460.33 240.495C462.361 235.5 467.673 232.551 476.267 231.648C484.862 230.745 490.671 232.525 493.696 236.988L498.542 283.097L465.176 286.604ZM565.275 276.083L531.909 279.59L527.063 233.481C529.093 228.487 534.406 225.538 543 224.634C551.595 223.731 557.404 225.511 560.429 229.974L565.275 276.083Z" fill="white" stroke="#263E4B" stroke-width="0.955316" stroke-linecap="round" stroke-linejoin="round"/>
<path fill-rule="evenodd" clip-rule="evenodd" d="M464.357 337.579L458.751 284.238C461.651 278.402 469.01 274.863 480.828 273.62C492.645 272.378 500.579 274.31 504.63 279.416L510.236 332.757L464.357 337.579ZM576.969 325.743L531.09 330.565L525.484 277.224C528.384 271.388 535.743 267.849 547.56 266.607C559.378 265.365 567.312 267.296 571.362 272.402L576.969 325.743Z" fill="white"/>
<path d="M464.26 338.07C463.998 338.098 463.763 337.907 463.735 337.644L458.129 284.303C458.119 284.213 458.136 284.122 458.176 284.04C461.165 278.026 468.668 274.418 480.631 273.16C492.593 271.903 500.682 273.872 504.857 279.134C504.913 279.205 504.948 279.291 504.958 279.381L510.564 332.723C510.592 332.985 510.401 333.22 510.139 333.248L464.26 338.07ZM509.564 332.347L504.022 279.621C500.068 274.751 492.317 272.894 480.731 274.112C469.144 275.329 461.949 278.758 459.093 284.343L464.635 337.069L509.564 332.347ZM577.297 325.709C577.324 325.971 577.134 326.207 576.872 326.234L530.993 331.056C530.731 331.084 530.495 330.893 530.468 330.631L524.861 277.289C524.852 277.199 524.868 277.108 524.909 277.026C527.898 271.012 535.401 267.404 547.363 266.146C559.326 264.889 567.415 266.859 571.589 272.12C571.646 272.191 571.681 272.277 571.69 272.367L577.297 325.709ZM576.297 325.333L570.755 272.607C566.801 267.738 559.05 265.88 547.463 267.098C535.877 268.315 528.682 271.744 525.826 277.329L531.368 330.055L576.297 325.333Z" fill="#263E4B"/>
<path fill-rule="evenodd" clip-rule="evenodd" d="M487.972 343.007C475.303 344.339 464.664 341.916 464.21 337.595C463.756 333.274 473.658 328.691 486.327 327.36C498.996 326.028 509.635 328.452 510.089 332.773C510.543 337.094 500.641 341.676 487.972 343.007ZM554.705 335.993C542.036 337.325 531.397 334.902 530.943 330.581C530.489 326.26 540.391 321.677 553.06 320.346C565.729 319.014 576.368 321.438 576.822 325.759C577.276 330.08 567.374 334.662 554.705 335.993Z" fill="#263E4B"/>
<path d="M452.932 295.491C456.938 295.07 459.843 291.48 459.422 287.472C459.001 283.465 455.412 280.557 451.407 280.978C447.402 281.399 444.496 284.989 444.917 288.997C445.338 293.004 448.927 295.912 452.932 295.491ZM452.832 294.54C449.352 294.905 446.233 292.379 445.867 288.897C445.501 285.415 448.026 282.295 451.507 281.929C454.988 281.563 458.106 284.09 458.472 287.572C458.838 291.054 456.313 294.174 452.832 294.54Z" fill="#263E4B"/>
<path d="M300.032 303.381L306.467 301.038C306.715 300.948 306.989 301.076 307.08 301.324C307.17 301.572 307.042 301.847 306.794 301.937L301.072 304.02L306.874 307.452C307.101 307.586 307.176 307.879 307.042 308.107C306.908 308.334 306.615 308.409 306.388 308.275L299.91 304.443L299.788 304.487C299.732 304.508 299.674 304.517 299.618 304.516C287.922 320.107 285.217 335.489 291.469 350.718C297.564 365.565 300.303 370.864 304.92 375.437C310.243 380.71 317.573 383.45 330.248 384.854C354.149 387.502 368.109 379.573 374.326 361.899C378.211 350.856 380.433 343.124 380.99 338.726C381.023 338.464 381.262 338.278 381.524 338.312C381.786 338.345 381.971 338.584 381.938 338.846C381.369 343.331 379.133 351.113 375.227 362.217C368.856 380.328 354.469 388.5 330.143 385.805C317.274 384.379 309.75 381.566 304.248 376.117C299.504 371.418 296.732 366.055 290.585 351.082C284.164 335.438 286.996 319.619 299.049 303.683C300.346 287.502 306.213 272.357 316.644 258.257C327.044 244.2 337.761 233.632 348.799 226.556C356.26 206.767 367.093 193.514 381.302 186.827C388.382 183.496 393.695 181.281 397.251 180.181C399.633 179.445 401.329 179.173 402.277 179.472L403.914 149.398C403.929 149.135 404.154 148.932 404.417 148.945C404.681 148.961 404.883 149.187 404.868 149.45L403.165 180.736C403.131 181.356 402.21 181.33 402.21 180.71C402.21 180.125 400.736 180.105 397.533 181.095C394.029 182.179 388.751 184.379 381.709 187.693C367.71 194.281 357.018 207.387 349.637 227.042C349.601 227.139 349.534 227.221 349.447 227.277C338.468 234.285 327.788 244.801 317.412 258.826C307.166 272.675 301.375 287.524 300.032 303.381Z" fill="#263E4B"/>
<path fill-rule="evenodd" clip-rule="evenodd" d="M402.799 176.84L398.325 188.169C398.067 188.824 398.388 189.563 399.042 189.822C399.3 189.924 399.584 189.939 399.85 189.865L418.959 184.563L431.604 189.068C432.267 189.304 432.996 188.958 433.232 188.295C433.373 187.899 433.309 187.458 433.062 187.118L426.045 177.478C424.744 178.611 421.956 179.178 417.681 179.178C413.407 179.178 408.446 178.399 402.799 176.84Z" fill="white"/>
<path d="M418.661 184.912L400.297 190.006C399.93 190.108 399.54 190.088 399.185 189.947C398.286 189.591 397.845 188.573 398.2 187.672L402.673 176.346C402.763 176.119 403.009 175.996 403.245 176.061C408.853 177.608 413.772 178.381 418 178.381C422.166 178.381 424.862 177.833 426.05 176.798C426.261 176.614 426.585 176.651 426.75 176.878L433.764 186.514C434.104 186.983 434.192 187.589 433.998 188.135C433.674 189.047 432.672 189.523 431.761 189.199L419.618 184.874C419.64 185.055 419.665 185.268 419.693 185.512C419.813 186.55 419.992 188.158 420.231 190.337C420.709 194.694 421.425 201.336 422.38 210.262C422.409 210.525 422.219 210.761 421.956 210.789C421.694 210.817 421.459 210.627 421.431 210.364C420.475 201.439 419.759 194.797 419.281 190.441C419.042 188.264 418.863 186.657 418.744 185.622C418.712 185.344 418.684 185.107 418.661 184.912ZM418.649 179.333C418.754 179.743 418.854 180.199 418.95 180.698C419.106 181.51 419.229 182.292 419.373 183.323L419.434 183.76C419.436 183.772 419.437 183.783 419.439 183.794L432.081 188.298C432.496 188.445 432.951 188.229 433.098 187.814C433.186 187.566 433.146 187.29 432.992 187.078L426.264 177.834C424.821 178.796 422.291 179.282 418.649 179.333ZM418.498 183.964C418.495 183.942 418.492 183.918 418.488 183.893L418.427 183.456C418.285 182.439 418.164 181.672 418.012 180.879C417.9 180.299 417.784 179.781 417.662 179.336C413.524 179.297 408.773 178.55 403.404 177.096L399.089 188.024C398.927 188.433 399.128 188.896 399.537 189.058C399.698 189.122 399.875 189.131 400.042 189.085L418.498 183.964Z" fill="#263E4B"/>
<path fill-rule="evenodd" clip-rule="evenodd" d="M353.441 286.28C379.867 244.113 395.045 220.841 398.978 216.465C402.047 213.049 407.304 212.768 410.72 215.837C413.276 218.134 414.156 221.767 412.934 224.979L403.436 249.938" fill="white"/>
<path d="M353.735 286.758C380.13 244.64 395.318 221.353 399.222 217.009C402.116 213.788 407.071 213.526 410.288 216.423C412.696 218.591 413.523 222.019 412.371 225.048L402.879 249.992L403.771 250.332L413.263 225.388C414.557 221.99 413.628 218.144 410.927 215.712C407.318 212.461 401.759 212.756 398.512 216.369C394.55 220.778 379.381 244.035 352.926 286.25L353.735 286.758Z" fill="#263E4B"/>
<path fill-rule="evenodd" clip-rule="evenodd" d="M412.469 131.272C411.725 131.052 410.938 130.934 410.123 130.934C405.551 130.934 401.844 134.645 401.844 139.223C401.844 143.112 404.52 146.376 408.129 147.27L407.755 154.982C407.655 157.039 405.943 158.646 403.884 158.617L394.057 158.479C393.427 158.471 392.801 158.377 392.196 158.201C388.481 157.118 386.347 153.23 387.43 149.515L398.23 112.444H399.509L399.514 112.437L401.012 112.444H406.62L406.622 112.471L419.944 112.536C418.405 119.61 417.024 124.337 415.8 126.718C414.925 128.418 413.815 129.936 412.469 131.272ZM457.727 112.444C458.981 117.758 457.041 120.414 451.906 120.414C446.771 120.414 439.069 117.758 428.8 112.444H457.727Z" fill="#263E4B"/>
<path fill-rule="evenodd" clip-rule="evenodd" d="M339.867 297.408L383.106 258.881C389.401 253.273 397.566 250.222 405.996 250.331L455.231 250.965C461.956 251.051 467.453 256.355 467.78 263.073C468.089 269.432 463.185 274.837 456.827 275.146C456.682 275.153 456.538 275.157 456.393 275.159L414.709 275.615C412.159 275.643 410.114 277.733 410.142 280.283C410.142 280.285 410.142 280.286 410.142 280.288C410.173 282.87 412.238 284.966 414.819 285.037L457.845 286.216C463.708 286.377 468.386 291.16 468.417 297.025C468.447 302.804 463.787 307.514 458.007 307.544C457.989 307.545 457.97 307.545 457.952 307.545H416.939C414.416 307.545 412.371 309.59 412.371 312.112C412.371 312.131 412.371 312.149 412.372 312.167C412.405 314.941 414.174 317.396 416.794 318.306L443.056 327.423C447.601 329 450.006 333.963 448.428 338.508C448.358 338.71 448.281 338.909 448.196 339.105C446.093 343.973 440.615 346.423 435.585 344.744L392.891 330.498L369.793 345.913C357.948 353.819 341.936 350.625 334.03 338.779C333.287 337.665 332.631 336.495 332.069 335.279C330.058 330.925 329.43 324.686 330.187 316.564C330.875 309.184 334.334 302.339 339.867 297.408Z" fill="white"/>
<path d="M338.147 342.686L346.201 337.503C343.438 334.861 341.206 331.616 339.321 327.842C336.589 322.373 337.487 311.913 341.964 296.398L340.438 297.757C334.986 302.615 331.579 309.363 330.903 316.639C330.158 324.67 330.779 330.819 332.747 335.079C333.295 336.266 333.935 337.409 334.659 338.497C335.691 340.046 336.863 341.444 338.147 342.686ZM338.87 343.358C347.263 350.861 359.96 352.064 369.758 345.525L371.987 344.037C363.132 345.638 355.929 344.331 350.158 340.623C349.008 339.884 347.934 339.066 346.928 338.173L338.87 343.358ZM342.473 294.664C342.473 294.661 342.474 294.659 342.475 294.656C342.529 294.474 342.682 294.348 342.858 294.32L383.036 258.521C389.417 252.835 397.692 249.743 406.235 249.853L455.494 250.487C462.464 250.576 468.162 256.08 468.501 263.05C468.823 269.672 463.722 275.301 457.107 275.623C456.957 275.631 456.806 275.635 456.655 275.637L414.953 276.093C412.67 276.118 410.839 277.992 410.864 280.278L410.864 280.282C410.892 282.607 412.749 284.495 415.071 284.559L458.113 285.738C464.227 285.906 469.106 290.899 469.138 297.022C469.17 303.065 464.302 307.991 458.265 308.023L458.207 308.023H417.177C414.921 308.023 413.093 309.854 413.093 312.112C413.093 312.137 413.093 312.137 413.093 312.161C413.124 314.733 414.763 317.01 417.19 317.852L443.463 326.973C448.25 328.635 450.785 333.867 449.125 338.659C449.051 338.874 448.968 339.086 448.878 339.295C446.677 344.392 440.947 346.956 435.684 345.2L393.205 331.025L370.288 346.32C358.218 354.376 341.911 351.111 333.865 339.028C333.112 337.898 332.449 336.712 331.88 335.48C329.829 331.042 329.193 324.734 329.952 316.551C330.65 309.034 334.17 302.062 339.803 297.042L342.473 294.664ZM343.311 295.198C338.53 311.301 337.503 322.065 340.176 327.415C342.816 332.702 346.142 336.906 350.674 339.818C356.574 343.609 364.043 344.8 373.402 342.782C373.533 342.754 373.662 342.782 373.766 342.85L393.064 329.97L435.987 344.293C440.779 345.892 445.996 343.557 448.001 338.915C448.082 338.728 448.156 338.538 448.222 338.345C449.709 334.052 447.439 329.366 443.15 327.877L416.877 318.756C414.069 317.781 412.173 315.148 412.138 312.173C412.137 312.142 412.137 312.142 412.137 312.112C412.137 309.325 414.394 307.066 417.177 307.066H458.207L458.26 307.066C463.769 307.037 468.212 302.542 468.183 297.027C468.153 291.42 463.686 286.848 458.087 286.694L415.045 285.515C412.21 285.437 409.943 283.132 409.908 280.294L409.908 280.288C409.878 277.474 412.132 275.168 414.943 275.137L456.645 274.681C456.783 274.679 456.922 274.675 457.061 274.668C463.148 274.371 467.843 269.191 467.546 263.096C467.232 256.631 461.947 251.526 455.481 251.443L406.223 250.809C397.918 250.702 389.874 253.708 383.671 259.235L343.311 295.198Z" fill="#263E4B"/>
<path fill-rule="evenodd" clip-rule="evenodd" d="M555.381 262.096L555.387 263.392C555.418 270.003 560.786 275.347 567.397 275.347H576.459C568.971 275.922 564.089 278.367 561.811 282.679C558.224 289.471 560.822 297.885 567.614 301.472C569.616 302.529 571.845 303.082 574.109 303.081H578.052L576.974 303.61C569.397 307.328 566.269 316.485 569.988 324.062C570.212 324.519 570.459 324.965 570.727 325.397C574.348 330.439 581.37 331.592 586.413 327.972C586.75 327.73 587.073 327.47 587.381 327.192L594.411 320.859C598.293 317.361 600.119 312.123 599.253 306.97C599.19 306.594 599.128 306.255 599.069 305.951C598.702 304.092 597.428 301.329 595.247 297.662C596.733 294.687 597.158 291.074 596.521 286.823C595.884 282.573 594.08 278.853 591.108 275.665C592.555 271.955 592.767 267.81 591.744 263.233C591.339 261.42 590.778 259.875 590.062 258.598C588.747 256.256 586.378 254.697 583.706 254.417L565.931 252.55C560.684 251.999 555.984 255.806 555.433 261.054C555.397 261.4 555.379 261.748 555.381 262.096Z" fill="white"/>
<path d="M578.185 302.284L595.116 296.949C596.483 294.102 596.866 290.648 596.256 286.575C595.635 282.432 593.882 278.81 590.99 275.699L590.987 275.825L576.312 275.537C569.195 276.154 564.591 278.513 562.441 282.584C558.979 289.138 561.48 297.262 568.028 300.728C569.959 301.75 572.111 302.284 574.296 302.284H578.185ZM578.437 303.208L577.383 303.725C570.055 307.321 567.026 316.185 570.618 323.521C570.837 323.968 571.078 324.403 571.323 324.799C574.793 329.632 581.52 330.734 586.348 327.26C586.668 327.03 586.975 326.783 587.267 326.52L594.29 320.192C598.057 316.798 599.829 311.71 598.985 306.707C598.924 306.345 598.865 306.018 598.807 305.724C598.465 303.987 597.274 301.375 595.237 297.913L578.437 303.208ZM576.668 274.587L590.986 274.868C592.292 271.328 592.46 267.381 591.486 263.018C591.091 261.251 590.546 259.751 589.855 258.518C588.616 256.308 586.383 254.838 583.866 254.574L566.088 252.707C561.103 252.184 556.638 255.805 556.115 260.795C556.081 261.124 556.064 261.455 556.066 261.785L556.072 263.071C556.101 269.419 561.25 274.55 567.591 274.55H576.667L576.668 274.587ZM561.596 282.137C563.296 278.917 566.374 276.711 570.805 275.506H567.591C560.724 275.506 555.149 269.95 555.117 263.075L555.11 261.79C555.109 261.424 555.127 261.059 555.165 260.695C555.743 255.18 560.678 251.177 566.188 251.756L583.965 253.622C586.791 253.919 589.297 255.57 590.688 258.05C591.428 259.369 592.004 260.956 592.418 262.809C593.435 267.362 593.253 271.509 591.867 275.24C594.784 278.45 596.564 282.184 597.201 286.433C597.835 290.665 597.437 294.297 595.997 297.321C598.124 300.922 599.372 303.652 599.744 305.539C599.804 305.842 599.865 306.178 599.927 306.548C600.825 311.874 598.939 317.29 594.929 320.903L587.906 327.231C587.588 327.517 587.254 327.787 586.906 328.037C581.649 331.819 574.325 330.62 570.529 325.331C570.25 324.881 569.993 324.418 569.76 323.942C566.055 316.375 568.966 307.283 576.246 303.241H574.296C571.956 303.241 569.651 302.668 567.581 301.573C560.567 297.86 557.888 289.158 561.596 282.137ZM567.577 255.253C567.841 255.249 568.058 255.46 568.062 255.724C568.066 255.988 567.855 256.205 567.591 256.209C564.07 256.259 562.507 258.365 562.81 262.776C563.114 267.208 564.682 269.196 567.554 268.995C567.817 268.977 568.046 269.175 568.064 269.439C568.082 269.702 567.884 269.931 567.621 269.949C564.127 270.194 562.193 267.74 561.857 262.842C561.52 257.924 563.458 255.311 567.577 255.253ZM572.143 282.522C572.406 282.499 572.637 282.695 572.659 282.958C572.681 283.221 572.486 283.452 572.223 283.475C568.714 283.77 567.302 285.98 567.912 290.359C568.524 294.758 570.227 296.633 573.078 296.232C573.34 296.195 573.581 296.378 573.618 296.639C573.655 296.901 573.473 297.142 573.211 297.179C569.743 297.667 567.642 295.354 566.966 290.491C566.286 285.608 568.037 282.867 572.143 282.522ZM578.839 310.407C579.097 310.353 579.35 310.519 579.404 310.778C579.458 311.036 579.293 311.289 579.035 311.343C575.588 312.064 574.456 314.43 575.594 318.702C576.738 322.994 578.657 324.647 581.438 323.902C581.693 323.833 581.955 323.985 582.023 324.24C582.091 324.495 581.94 324.757 581.686 324.825C578.303 325.732 575.935 323.693 574.671 318.948C573.402 314.185 574.806 311.251 578.839 310.407Z" fill="#263E4B"/>
<path fill-rule="evenodd" clip-rule="evenodd" d="M165.066 395.973L180.529 557.459H188.49L180.908 394.418C180.709 390.139 177.08 386.833 172.801 387.031C172.67 387.038 172.539 387.047 172.409 387.06C167.922 387.497 164.637 391.485 165.066 395.973Z" fill="white"/>
<path d="M164.591 395.718L180.095 557.636H188.99L181.385 394.095C181.174 389.553 177.321 386.042 172.779 386.254C172.64 386.26 172.501 386.27 172.362 386.284C167.613 386.747 164.136 390.968 164.591 395.718ZM180.963 556.68L165.542 395.627C165.137 391.401 168.23 387.646 172.455 387.234C172.578 387.222 172.7 387.214 172.823 387.208C176.838 387.021 180.244 390.124 180.431 394.139L187.99 556.68H180.963Z" fill="#263E4B"/>
<path d="M176.627 562.121C176.527 562.365 176.248 562.482 176.004 562.382C175.76 562.282 175.643 562.003 175.743 561.759C182.045 546.35 185.713 535.584 186.745 529.486C186.789 529.226 187.036 529.05 187.296 529.094C187.556 529.138 187.731 529.385 187.687 529.645C186.64 535.833 182.954 546.649 176.627 562.121ZM186.395 508.207C186.479 508.457 186.344 508.728 186.094 508.812C185.844 508.896 185.573 508.761 185.49 508.511C182.685 500.147 177.018 493.011 168.475 487.098C168.258 486.948 168.204 486.65 168.354 486.433C168.504 486.216 168.802 486.162 169.019 486.312C177.725 492.339 183.522 499.639 186.395 508.207ZM179.543 542.077C179.434 542.317 179.151 542.423 178.91 542.315C178.67 542.206 178.564 541.923 178.673 541.682C179.525 539.802 180.095 538.271 180.384 537.094C184.348 520.929 181.891 509.116 174.872 500.72C174.702 500.518 174.729 500.217 174.932 500.047C175.134 499.878 175.435 499.905 175.604 500.107C182.824 508.743 185.347 520.869 181.311 537.322C181.007 538.564 180.417 540.147 179.543 542.077ZM168.283 388.079C168.25 387.817 168.435 387.578 168.696 387.544C168.958 387.511 169.197 387.696 169.231 387.958C173.37 420.405 188.903 437.565 215.898 439.579C216.161 439.599 216.358 439.828 216.339 440.091C216.319 440.354 216.09 440.552 215.827 440.532C188.347 438.481 172.476 420.95 168.283 388.079ZM175.277 387.587C175.252 387.324 175.445 387.091 175.707 387.066C175.97 387.041 176.203 387.234 176.228 387.497C178.941 416.068 191.857 430.964 215.062 432.671C215.325 432.691 215.523 432.92 215.504 433.183C215.484 433.446 215.255 433.644 214.992 433.624C191.287 431.88 178.031 416.593 175.277 387.587Z" fill="#263E4B"/>
<path fill-rule="evenodd" clip-rule="evenodd" d="M429.548 134.122C428.317 134.122 427.319 132.98 427.319 131.572C427.319 130.163 428.317 129.022 429.548 129.022C430.779 129.022 431.777 130.163 431.777 131.572C431.777 132.98 430.779 134.122 429.548 134.122ZM449.291 134.122C448.06 134.122 447.062 132.98 447.062 131.572C447.062 130.163 448.06 129.022 449.291 129.022C450.522 129.022 451.52 130.163 451.52 131.572C451.52 132.98 450.522 134.122 449.291 134.122ZM425.136 129.331C424.965 129.532 424.664 129.557 424.463 129.386C424.261 129.216 424.236 128.914 424.407 128.713C424.483 128.623 424.62 128.473 424.81 128.284C425.126 127.97 425.481 127.657 425.87 127.364C427.003 126.511 428.188 125.993 429.383 125.993C431.113 125.993 432.06 126.407 433.016 127.457C433.166 127.623 433.319 127.804 433.52 128.052C433.579 128.125 433.944 128.579 434.058 128.72C434.225 128.924 434.194 129.225 433.989 129.392C433.785 129.559 433.484 129.528 433.317 129.324C433.201 129.18 432.835 128.724 432.778 128.654C432.588 128.419 432.446 128.251 432.309 128.101C431.536 127.251 430.846 126.949 429.383 126.949C428.431 126.949 427.427 127.388 426.444 128.128C426.093 128.393 425.77 128.678 425.483 128.962C425.313 129.132 425.195 129.261 425.136 129.331ZM445.527 129.317C445.364 129.525 445.064 129.561 444.856 129.397C444.649 129.234 444.613 128.934 444.776 128.726C444.847 128.636 444.974 128.486 445.151 128.296C445.445 127.982 445.775 127.669 446.137 127.375C447.197 126.515 448.307 125.993 449.434 125.993C451.057 125.993 451.95 126.413 452.844 127.47C452.984 127.636 453.126 127.817 453.312 128.065C453.367 128.138 453.706 128.593 453.812 128.733C453.971 128.944 453.929 129.244 453.719 129.403C453.509 129.562 453.209 129.521 453.05 129.31C452.941 129.166 452.602 128.711 452.549 128.641C452.373 128.406 452.241 128.237 452.114 128.088C451.402 127.245 450.774 126.949 449.434 126.949C448.567 126.949 447.644 127.383 446.739 128.118C446.413 128.382 446.114 128.666 445.849 128.95C445.691 129.119 445.582 129.248 445.527 129.317ZM442.174 138.107H445.934L441.729 127.282C441.634 127.036 441.756 126.759 442.001 126.663C442.247 126.567 442.524 126.689 442.62 126.935L447.078 138.412C447.2 138.725 446.969 139.063 446.633 139.063H442.174C441.911 139.063 441.697 138.849 441.697 138.585C441.697 138.321 441.911 138.107 442.174 138.107ZM439.853 144.745C439.62 144.87 439.331 144.782 439.206 144.549C439.081 144.317 439.169 144.027 439.401 143.902C441.132 142.974 442.798 142.974 444.335 143.916C444.56 144.054 444.63 144.348 444.492 144.573C444.355 144.798 444.061 144.869 443.836 144.731C442.598 143.973 441.292 143.973 439.853 144.745Z" fill="#263E4B"/>
<path fill-rule="evenodd" clip-rule="evenodd" d="M88.5002 424.833L113.975 503.574L239.759 486.678V394.547L115.498 419.427L113.975 430.252L105.826 421.363L88.5002 424.833Z" fill="white"/>
<path d="M106.178 420.749C106.065 420.626 105.896 420.571 105.732 420.603L88.4065 424.072C88.1265 424.128 87.9579 424.416 88.0458 424.688L113.521 503.429C113.592 503.649 113.81 503.786 114.039 503.756L239.822 486.86C240.059 486.828 240.236 486.625 240.236 486.386V394.256C240.236 393.954 239.96 393.728 239.665 393.787L115.404 418.667C115.205 418.707 115.053 418.868 115.025 419.069L113.643 428.891L106.178 420.749ZM105.656 421.593L113.623 430.283C113.896 430.581 114.392 430.427 114.448 430.027L115.924 419.537L239.281 394.838V485.968L114.307 502.756L89.1198 424.904L105.656 421.593Z" fill="#263E4B"/>
<path fill-rule="evenodd" clip-rule="evenodd" d="M60.4777 644.021H102.83C119.512 600.556 134.829 573.418 148.779 562.609C149.603 561.97 144.689 554.891 134.037 541.371C140.942 546.836 145.718 550.343 148.367 551.891C149.614 552.619 149.72 542.206 148.685 520.649L160.088 555.204C164.429 553.022 167.74 551.492 170.021 550.616C202.077 538.289 228.401 569.424 248.993 644.021H679.522" fill="white"/>
<path d="M148.126 552.151C148.58 552.416 148.99 552.17 149.214 551.692C149.359 551.381 149.471 550.911 149.561 550.262C149.734 549.026 149.833 547.102 149.859 544.479C149.907 539.839 149.728 532.999 149.324 523.957L159.634 555.202C159.726 555.479 160.042 555.61 160.302 555.479C164.631 553.303 167.929 551.779 170.192 550.909C201.871 538.727 228.007 569.64 248.533 643.996C248.59 644.203 248.778 644.347 248.993 644.347H679.522C679.786 644.347 680 644.133 680 643.869C680 643.605 679.786 643.391 679.522 643.391H249.357C228.712 568.806 202.232 537.565 169.849 550.017C167.639 550.867 164.48 552.32 160.368 554.377L149.139 520.347C148.965 519.819 148.181 519.964 148.208 520.52C148.725 531.289 148.957 539.274 148.904 544.47C148.878 547.054 148.781 548.944 148.615 550.13C148.547 550.616 148.468 550.975 148.386 551.195C145.721 549.599 141.031 546.146 134.333 540.844C133.889 540.492 133.311 541.069 133.662 541.514C138.982 548.267 142.869 553.41 145.319 556.94C146.538 558.696 147.399 560.049 147.899 560.994C148.14 561.447 148.293 561.8 148.358 562.04C148.371 562.087 148.38 562.127 148.385 562.158C134.404 573.065 119.128 600.132 102.502 643.391H60.4777C60.2139 643.391 60 643.605 60 643.869C60 644.133 60.2139 644.347 60.4777 644.347H102.83C103.028 644.347 103.205 644.225 103.276 644.04C119.928 600.653 135.212 573.573 149.072 562.834C149.855 562.227 148.896 560.418 146.104 556.396C144.033 553.412 140.949 549.292 136.852 544.035C142.118 548.131 145.873 550.834 148.126 552.151Z" fill="#263E4B"/>
<path d="M434.469 82H416.378C408.251 82 401.652 88.5555 401.572 96.6731L390.832 112.172C390.612 112.489 390.839 112.923 391.224 112.923H463.828C464.25 112.923 464.465 112.416 464.172 112.113L448.638 95.9918C448.534 88.2466 442.23 82 434.469 82ZM402.441 97.0963C402.497 97.0163 402.526 96.9212 402.526 96.8238C402.526 89.165 408.728 82.9564 416.378 82.9564H434.469C441.767 82.9564 447.684 88.8796 447.684 96.1862C447.684 96.31 447.732 96.4291 447.818 96.5182L462.704 111.966H392.137L402.441 97.0963Z" fill="#263E4B"/>
<path fill-rule="evenodd" clip-rule="evenodd" d="M447.966 96.505L401.844 97.1426L398.66 101.924H453.113L447.966 96.505Z" fill="#8257e5"/>
<path d="M448.278 95.7079L402.156 96.3456C401.998 96.3477 401.852 96.4274 401.765 96.5584L398.58 101.34C398.369 101.658 398.596 102.084 398.978 102.084H453.431C453.851 102.084 454.066 101.581 453.777 101.276L448.63 95.8566C448.539 95.76 448.411 95.7061 448.278 95.7079ZM452.318 101.127H399.87L402.42 97.2984L448.082 96.6671L452.318 101.127Z" fill="#263E4B"/>
<path fill-rule="evenodd" clip-rule="evenodd" d="M318.731 631.436L313.318 657.577H334.335H415.855C411.154 647.646 405.634 640.738 399.296 636.856C392.958 632.973 381.388 631.166 364.587 631.436L373.184 586.805L321.597 587.124L320.96 620.597L318.731 631.436Z" fill="white"/>
<path fill-rule="evenodd" clip-rule="evenodd" d="M457.252 627.611V657.896L469.99 657.577H551.51C546.809 647.646 541.289 640.738 534.951 636.856C528.613 632.973 517.043 631.166 500.241 631.436L508.202 587.521L452.476 587.124L456.615 620.597L457.252 627.611Z" fill="white"/>
<path fill-rule="evenodd" clip-rule="evenodd" d="M320.96 620.916C325.836 621.706 329.657 624.787 332.424 630.161C335.191 635.535 336.677 642.761 336.882 651.839L314.592 651.52" fill="#8257e5"/>
<path fill-rule="evenodd" clip-rule="evenodd" d="M457.252 620.916C465.949 622.981 471.681 626.7 474.448 632.074C477.215 637.447 478.489 644.036 478.269 651.839L457.252 651.52V620.916Z" fill="#8257e5"/>
<path d="M336.801 586.871L340.347 562.417H332.743V561.462H340.485L342.381 548.391H335.609V547.435H372.547V548.391H365.143L362.721 561.462H369.682V562.417H362.544L358.038 586.74L373.764 586.643L366.719 623.208L369.152 616.537C369.254 616.257 369.382 615.987 369.533 615.729C370.914 613.376 373.941 612.588 376.294 613.969C376.691 614.201 377.048 614.495 377.352 614.839C378.95 616.643 378.782 619.4 376.979 620.998L365.657 631.024C367.788 630.494 373.02 629.149 380.707 627.148C380.962 627.082 381.223 627.235 381.289 627.49C381.356 627.746 381.203 628.006 380.947 628.073C375.348 629.53 371.31 630.575 368.645 631.253C383.348 631.32 393.64 633.149 399.546 636.767C405.973 640.704 411.549 647.683 416.287 657.691L416.61 658.373H312.731L318.264 631.659L320.484 620.863L321.129 586.968L336.801 586.871ZM337.767 586.865L347.005 586.808L350.738 562.417H341.312L337.767 586.865ZM347.972 586.802L357.065 586.746L361.573 562.417H351.704L347.972 586.802ZM364.991 632.227C364.95 632.235 364.908 632.237 364.865 632.234L354.092 632.551C353.828 632.559 353.608 632.352 353.601 632.088C353.593 631.824 353.8 631.604 354.064 631.596L363.685 631.313L352.037 620.998C350.234 619.4 350.066 616.643 351.664 614.839C351.968 614.495 352.325 614.201 352.722 613.969C355.075 612.588 358.102 613.376 359.483 615.729C359.634 615.987 359.762 616.257 359.864 616.537L364.508 629.272L364.657 628.863L372.605 587.605L322.066 587.918L321.445 620.558C331.361 623.505 337.045 633.71 337.353 651.042H411.634C407.873 644.903 403.676 640.417 399.047 637.582C392.856 633.789 381.494 631.993 364.991 632.227ZM365.581 629.119L365.419 629.959L376.345 620.282C377.754 619.035 377.885 616.881 376.637 615.472C376.399 615.204 376.12 614.974 375.811 614.793C373.913 613.679 371.471 614.315 370.357 616.213C370.235 616.42 370.132 616.638 370.05 616.864L365.581 629.119ZM412.207 651.998H315.027L313.905 657.418H415.097C414.165 655.493 413.202 653.686 412.207 651.998ZM315.225 651.042H336.398C336.095 634.183 330.662 624.384 321.324 621.52L319.199 631.852L315.225 651.042ZM358.966 616.864C358.884 616.638 358.781 616.42 358.659 616.213C357.545 614.315 355.104 613.679 353.205 614.793C352.896 614.974 352.617 615.204 352.379 615.472C351.131 616.881 351.262 619.035 352.671 620.282L363.81 630.148L358.966 616.864ZM364.171 548.391H353.851L351.851 561.462H361.75L364.171 548.391ZM352.885 548.391H343.346L341.451 561.462H350.884L352.885 548.391Z" fill="#263E4B"/>
<path fill-rule="evenodd" clip-rule="evenodd" d="M316.821 246.655H306.312L317.776 228.484" fill="#8257e5"/>
<path d="M463.669 586.711L460.146 562.417H454.068V561.462H460.008L458.113 548.391H452.157V547.435H490.688V548.391H482.459L483.776 561.462H491.007V562.417H483.872L486.331 586.84L508.769 586.969L501.505 629.084L506.081 616.537C506.183 616.257 506.31 615.987 506.461 615.729C507.842 613.376 510.87 612.588 513.223 613.969C513.619 614.201 513.976 614.495 514.281 614.839C515.878 616.643 515.711 619.4 513.907 620.998L503.093 630.575C505.787 629.89 510.314 628.722 516.361 627.148C516.617 627.082 516.878 627.235 516.944 627.49C517.01 627.746 516.857 628.006 516.602 628.073C511.006 629.53 506.969 630.574 504.304 631.252C519.174 631.294 529.572 633.124 535.519 636.767C541.946 640.704 547.522 647.683 552.26 657.691L552.583 658.373H456.779L456.774 657.9L456.46 620.979L451.93 586.643L463.669 586.711ZM464.635 586.716L474.227 586.771L472.069 562.417H461.112L464.635 586.716ZM475.187 586.776L485.37 586.835L482.912 562.417H473.028L475.187 586.776ZM457.35 620.449C471.184 623.236 478.325 633.483 478.737 651.042H547.607C543.846 644.903 539.649 640.417 535.02 637.582C528.852 633.803 517.55 632.006 501.144 632.224C501.08 632.239 501.016 632.239 500.954 632.227C500.841 632.228 500.727 632.23 500.613 632.232C500.583 632.236 500.552 632.236 500.52 632.234L489.747 632.551C489.483 632.559 489.263 632.352 489.255 632.088C489.248 631.824 489.455 631.604 489.719 631.596L499.34 631.313L487.692 620.998C485.889 619.4 485.721 616.643 487.319 614.839C487.623 614.495 487.98 614.201 488.377 613.969C490.73 612.588 493.757 613.376 495.138 615.729C495.289 615.987 495.417 616.257 495.519 616.537L500.394 629.906L507.636 587.917L453.021 587.605L457.35 620.449ZM457.416 621.437L457.671 651.042H477.782C477.377 634.022 470.6 624.201 457.416 621.437ZM548.181 651.998H457.679L457.726 657.418H551.07C550.138 655.493 549.175 653.686 548.181 651.998ZM494.621 616.864C494.539 616.638 494.436 616.42 494.314 616.213C493.2 614.315 490.758 613.679 488.86 614.793C488.551 614.974 488.272 615.204 488.034 615.472C486.786 616.881 486.917 619.035 488.326 620.282L499.465 630.148L494.621 616.864ZM506.978 616.864L502.134 630.148L513.274 620.282C514.683 619.035 514.813 616.881 513.566 615.472C513.328 615.204 513.049 614.974 512.739 614.793C510.841 613.679 508.399 614.315 507.285 616.213C507.163 616.42 507.061 616.638 506.978 616.864ZM481.499 548.391H471.785L472.944 561.462H482.815L481.499 548.391ZM470.826 548.391H459.078L460.973 561.462H471.985L470.826 548.391Z" fill="#263E4B"/>
<path d="M152.925 458.933L153.865 464.867L148.405 465.732L149.11 470.183L142.09 471.295L141.385 466.844L122.119 469.895L121.179 463.961L137.761 443.964L144.781 442.853L147.465 459.797L152.925 458.933ZM128.745 462.762L140.445 460.909L138.875 450.992L128.745 462.762ZM172.455 466.886C161.613 468.603 155.674 464.421 154.233 455.324C152.798 446.266 157.161 440.492 168.003 438.774C178.806 437.063 184.784 441.239 186.213 450.258C187.648 459.317 183.258 465.175 172.455 466.886ZM171.521 460.99C177.683 460.014 180.003 456.485 179.193 451.37C178.389 446.295 175.099 443.694 168.937 444.67C162.775 445.646 160.443 449.097 161.253 454.212C162.069 459.366 165.359 461.966 171.521 460.99ZM220.786 448.185L221.726 454.119L216.266 454.984L216.971 459.435L209.951 460.547L209.246 456.096L189.979 459.147L189.04 453.213L205.622 433.216L212.642 432.105L215.326 449.049L220.786 448.185ZM196.606 452.014L208.306 450.161L206.735 440.244L196.606 452.014Z" fill="#8257e5"/>
<path d="M153.628 458.073L154.717 464.951L149.257 465.816L149.962 470.267L141.998 471.528L141.293 467.077L122.027 470.128L120.979 463.509L137.814 443.208L145.484 441.993L148.168 458.938L153.628 458.073ZM147.373 460.031L144.69 443.086L138.319 444.095L121.99 463.786L122.821 469.035L142.087 465.984L142.792 470.435L148.869 469.473L148.164 465.022L153.624 464.157L152.833 459.166L147.373 460.031ZM127.839 463.125L139.49 449.586L141.297 460.993L127.839 463.125ZM140.204 460.199L138.869 451.772L130.262 461.774L140.204 460.199ZM172.835 467.044C161.935 468.77 155.578 464.628 154.066 455.085C152.562 445.586 157.329 439.716 168.233 437.989C179.097 436.269 185.491 440.409 186.99 449.87C188.495 459.376 183.695 465.324 172.835 467.044ZM172.686 466.101C183.044 464.46 187.466 458.981 186.046 450.02C184.634 441.103 178.746 437.291 168.383 438.933C157.978 440.581 153.592 445.981 155.01 454.936C156.435 463.935 162.287 467.748 172.686 466.101ZM171.901 461.149C165.674 462.135 161.973 459.575 161.086 453.973C160.206 448.415 162.937 444.872 169.167 443.885C175.382 442.901 179.093 445.449 179.97 450.982C180.853 456.559 178.114 460.165 171.901 461.149ZM171.752 460.205C177.452 459.302 179.826 456.178 179.026 451.132C178.234 446.131 175.021 443.925 169.317 444.828C163.596 445.734 161.234 448.799 162.03 453.824C162.833 458.894 166.037 461.11 171.752 460.205ZM221.488 447.325L222.577 454.203L217.117 455.068L217.822 459.519L209.859 460.78L209.154 456.329L189.888 459.38L188.839 452.761L205.674 432.459L213.344 431.245L216.028 448.19L221.488 447.325ZM215.234 449.283L212.55 432.338L206.18 433.347L189.85 453.038L190.682 458.287L209.948 455.236L210.653 459.687L216.729 458.725L216.024 454.274L221.484 453.409L220.694 448.418L215.234 449.283ZM195.699 452.376L207.351 438.838L209.157 450.245L195.699 452.376ZM208.064 449.451L206.73 441.024L198.122 451.025L208.064 449.451Z" fill="#263E4B"/>
<path d="M317.652 227.972C317.71 227.754 317.759 227.552 317.8 227.366L318.322 216.341C319.187 198.066 334.24 183.694 352.516 183.694H388.469V184.651H352.516C334.75 184.651 320.117 198.621 319.276 216.387L319.124 219.592C320.813 213.109 324.069 207.31 328.897 202.329C336.175 194.822 345.189 198.564 355.739 213.222C355.894 213.436 355.845 213.735 355.631 213.889C355.417 214.044 355.119 213.995 354.964 213.781C344.71 199.535 336.316 196.051 329.583 202.995C323.246 209.532 319.689 217.502 318.889 226.614C318.867 226.867 318.82 227.159 318.75 227.49L317.298 258.155L316.344 258.109L316.879 246.815H306.631C306.255 246.815 306.026 246.4 306.227 246.081L317.652 227.972ZM316.924 245.859L317.689 229.704L307.497 245.859H316.924Z" fill="#263E4B"/>
<path d="M458.628 270.773C458.364 270.763 458.159 270.541 458.169 270.277C458.179 270.013 458.4 269.807 458.664 269.817C462.183 269.952 463.854 267.93 463.782 263.509C463.711 259.068 462.249 257 459.37 257.051C459.106 257.055 458.889 256.845 458.884 256.581C458.88 256.317 459.09 256.099 459.353 256.094C462.855 256.033 464.659 258.585 464.738 263.494C464.817 268.423 462.745 270.93 458.628 270.773ZM457.609 304.41C457.346 304.386 457.152 304.154 457.176 303.891C457.2 303.628 457.432 303.434 457.695 303.458C461.202 303.776 462.976 301.845 463.137 297.426C463.298 292.987 461.946 290.846 459.068 290.745C458.805 290.736 458.598 290.515 458.608 290.251C458.617 289.987 458.838 289.78 459.102 289.79C462.602 289.912 464.269 292.554 464.091 297.461C463.912 302.387 461.712 304.783 457.609 304.41ZM436.729 341.631C436.487 341.525 436.377 341.243 436.483 341.001C436.589 340.759 436.871 340.649 437.113 340.755C440.359 342.178 442.523 341.244 443.833 337.848C445.152 334.428 444.46 332.318 441.75 331.278C441.504 331.184 441.381 330.907 441.475 330.661C441.57 330.414 441.846 330.291 442.093 330.385C445.34 331.632 446.22 334.314 444.724 338.192C443.22 342.092 440.478 343.274 436.729 341.631ZM402.338 214.334L403.261 214.581C401.518 221.123 397.882 224.983 392.384 226.084L392.197 225.146C397.314 224.122 400.684 220.544 402.338 214.334Z" fill="#263E4B"/>
<path d="M348.84 227.014L350.114 231.795C350.182 232.051 350.443 232.202 350.698 232.134C350.953 232.066 351.105 231.804 351.037 231.549L349.763 226.767C349.695 226.512 349.433 226.36 349.178 226.428C348.924 226.496 348.772 226.758 348.84 227.014Z" fill="#263E4B"/>
<path d="M349.194 227.356L353.334 228.313C353.591 228.372 353.847 228.212 353.907 227.954C353.966 227.697 353.806 227.44 353.549 227.381L349.409 226.424C349.152 226.365 348.895 226.526 348.836 226.783C348.777 227.04 348.937 227.297 349.194 227.356Z" fill="#263E4B"/>
<path d="M528.947 230.384C525.727 226.495 520.128 226.084 515.513 229.124C513.714 230.308 512.403 231.995 511.787 233.923C510.234 238.78 516.335 251.192 530.098 271.471C530.246 271.69 530.543 271.746 530.762 271.598C530.98 271.449 531.036 271.152 530.888 270.934C517.349 250.984 511.282 238.641 512.697 234.214C513.245 232.499 514.419 230.989 516.038 229.923C520.27 227.136 525.324 227.507 528.212 230.994C528.38 231.197 528.682 231.225 528.885 231.057C529.088 230.888 529.116 230.587 528.947 230.384Z" fill="#263E4B"/>
</svg>
